# xmcd CD database file
#
# Track frame offsets:
#	150
#	18813
#	38684
#	58674
#	79249
#	102891
#	121173
#	139676
#	161859
#	181164
#	196465
#	223271
#
# Disc length: 3172 seconds
#
# Revision: 7
# Processed by: cddbd v1.5.2PL0 Copyright (c) Steve Scherf et al.
# Submitted via: CDex 1.70beta2
#
DISCID=a10c620c
DTITLE=モーニング娘。 - ベスト！モーニング娘。2
DYEAR=2004
DGENRE=JPop
TTITLE0=Go Girl -恋のヴィクトリー
TTITLE1=Do it! Now
TTITLE2=ここにいるぜぇ！
TTITLE3=愛あらば IT'S ALL RIGHT
TTITLE4=ザ☆ピ〜ス！
TTITLE5=Mr.Moonlight -愛のビッグバンド
TTITLE6=シャボン玉
TTITLE7=そうだ！We're ALIVE
TTITLE8=AS FOR ONE DAY
TTITLE9=モーニング娘。のひょっこりひょうたん島
TTITLE10=でっかい宇宙に愛がある
TTITLE11=YAH！愛したい！
EXTD=YEAR: 2004
EXTT0=
EXTT1=
EXTT2=
EXTT3=
EXTT4=
EXTT5=
EXTT6=
EXTT7=
EXTT8=
EXTT9=
EXTT10=
EXTT11=
PLAYORDER=
